<?xml version="1.0" ?>
<!DOCTYPE svg  PUBLIC '-//W3C//DTD SVG 1.1//EN'  'http://www.w3.org/Graphics/SVG/1.1/DTD/svg11.dtd'>
<!-- Uploaded to: SVG Repo, www.svgrepo.com, Generator: SVG Repo Mixer Tools -->
<svg fill="#000000" width="800px" height="800px" viewBox="0 -0.63 2.11 2.11" style="shape-rendering:geometricPrecision; text-rendering:geometricPrecision; image-rendering:optimizeQuality; fill-rule:evenodd; clip-rule:evenodd" version="1.1" xml:space="preserve" xmlns="http://www.w3.org/2000/svg" xmlns:xlink="http://www.w3.org/1999/xlink">
<defs>
<style type="text/css">
   <![CDATA[
    .fil0 {fill:black;fill-rule:nonzero}
   ]]>
  </style>
</defs>
<g id="Layer_x0020_1">
<path class="fil0" d="M0.16 0.69l1.79 0 0 -0.53 -0.51 0 0 0.29 -0.13 0 0 -0.29 -0.12 0 0 0.16 -0.13 0 0 -0.16 -0.11 0 0 0.29 -0.13 0 0 -0.29 -0.11 0 0 0.16 -0.13 0 0 -0.16 -0.12 0 0 0.29 -0.13 0 0 -0.29 -0.17 0 0 0.53zm1.59 -0.35c0.05,0 0.09,0.04 0.09,0.09 0,0.04 -0.04,0.08 -0.09,0.08 -0.05,0 -0.09,-0.04 -0.09,-0.08 0,-0.05 0.04,-0.09 0.09,-0.09zm0.28 0.51l-2.03 0 0 -0.85 2.11 0 0 0.85 -0.08 0z"/>
</g>
</svg>